<svg xmlns="http://www.w3.org/2000/svg" viewBox="0 0 800 640"><rect width="800" height="640" rx="36" fill="#26322d"/><circle cx="580" cy="140" r="70" fill="#F4CE14" opacity="0.12"/><rect x="100" y="110" width="600" height="370" rx="28" fill="#101514"/><ellipse cx="410" cy="300" rx="220" ry="90" fill="#1f2623"/><ellipse cx="280" cy="285" rx="90" ry="42" fill="#EDEFEE"/><circle cx="250" cy="270" r="22" fill="#EE9972"/><circle cx="295" cy="285" r="18" fill="#F4CE14"/><circle cx="325" cy="265" r="16" fill="#8bc34a"/><path d="M220 300c40-12 93-10 130 4" stroke="#7cb342" stroke-width="10" fill="none" stroke-linecap="round"/><ellipse cx="520" cy="330" rx="95" ry="44" fill="#EDEFEE"/><rect x="470" y="265" width="40" height="85" rx="18" fill="#EE9972"/><rect x="515" y="250" width="40" height="100" rx="18" fill="#F4CE14"/><rect x="560" y="270" width="40" height="78" rx="18" fill="#c0392b"/><path d="M453 316c36-12 117-12 140 3" stroke="#8bc34a" stroke-width="11" fill="none" stroke-linecap="round"/><text x="110" y="560" font-family="Georgia, serif" font-size="42" fill="#ffffff">Fresh Mediterranean Plates</text></svg>